<svg xmlns="http://www.w3.org/2000/svg" xml:space="preserve" viewBox="0 0 119.09 64.83"><path fill="#FD5F17" stroke="#1B1464" stroke-miterlimit="10" d="M5.42 58.33V10.34h27.14c4.24 0 7.34.48 9.28 1.44 2.25 1.15 3.95 3.01 5.1 5.59a13.1 13.1 0 0 1 1.23 5.55c0 2.48-.66 4.8-1.99 6.96-1.32 2.16-2.99 3.64-5.01 4.46 4.64 2.13 6.96 5.89 6.96 11.29 0 3.14-.74 5.77-2.21 7.88-1.27 1.83-2.91 3.09-4.94 3.78s-5.03 1.04-9.02 1.04zm10.2-28.26h13.92c1.45 0 2.51-.08 3.18-.23q1.005-.225 1.92-.93c1.5-1.15 2.25-2.73 2.25-4.75 0-1.95-.7-3.38-2.11-4.29-1.01-.66-2.68-.98-5.03-.98H15.62zm0 19.72h13.92c1.45 0 2.52-.08 3.2-.23s1.31-.46 1.9-.93c1.5-1.15 2.25-2.73 2.25-4.75 0-1.95-.7-3.38-2.11-4.29-1.01-.66-2.68-.98-5.03-.98H15.62zm75.69-19.97h23.59v28.51H93.45c-3.73 0-6.67-.28-8.84-.83a16 16 0 0 1-5.92-2.9q-7.56-5.835-7.56-20.07c0-6.23 1.2-11.4 3.59-15.5 1.78-3.02 4.2-5.23 7.26-6.61q4.59-2.07 11.97-2.07h20.95v8.54H95.11c-4.27 0-7.37.94-9.32 2.81-2.27 2.2-3.41 6.15-3.41 11.85 0 2.93.3 5.57.9 7.93s1.41 4.11 2.44 5.26c.94 1.05 2.2 1.83 3.8 2.32 1.59.49 3.57.74 5.94.74h9.25V38.36h-13.4z"/><path fill="#F15A24" stroke="#1B1464" stroke-miterlimit="10" d="M67 4.78v42.99H53.34V4.78zm0 47.29v9.68H53.34v-9.68z"/></svg>